<svg width="46" height="255" viewBox="0 0 46 255" fill="none" xmlns="http://www.w3.org/2000/svg">
<path d="M45.7071 8.20711C46.0976 7.81658 46.0976 7.18342 45.7071 6.79289L39.3431 0.428932C38.9526 0.0384078 38.3195 0.0384078 37.9289 0.428932C37.5384 0.819457 37.5384 1.45262 37.9289 1.84315L43.5858 7.5L37.9289 13.1569C37.5384 13.5474 37.5384 14.1805 37.9289 14.5711C38.3195 14.9616 38.9526 14.9616 39.3431 14.5711L45.7071 8.20711ZM2 47.5V19.5H0V47.5H2ZM13 8.5H45V6.5H13V8.5ZM2 19.5C2 13.4249 6.92487 8.5 13 8.5V6.5C5.8203 6.5 0 12.3203 0 19.5H2Z" fill="#001E87"/>
<path d="M45.7071 48.2071C46.0976 47.8166 46.0976 47.1834 45.7071 46.7929L39.3431 40.4289C38.9526 40.0384 38.3195 40.0384 37.9289 40.4289C37.5384 40.8195 37.5384 41.4526 37.9289 41.8431L43.5858 47.5L37.9289 53.1569C37.5384 53.5474 37.5384 54.1805 37.9289 54.5711C38.3195 54.9616 38.9526 54.9616 39.3431 54.5711L45.7071 48.2071ZM2 87.5V59.5H0V87.5H2ZM13 48.5H45V46.5H13V48.5ZM2 59.5C2 53.4249 6.92487 48.5 13 48.5V46.5C5.8203 46.5 0 52.3203 0 59.5H2Z" fill="#001E87"/>
<path d="M45.7071 88.2071C46.0976 87.8166 46.0976 87.1834 45.7071 86.7929L39.3431 80.4289C38.9526 80.0384 38.3195 80.0384 37.9289 80.4289C37.5384 80.8195 37.5384 81.4526 37.9289 81.8431L43.5858 87.5L37.9289 93.1569C37.5384 93.5474 37.5384 94.1805 37.9289 94.5711C38.3195 94.9616 38.9526 94.9616 39.3431 94.5711L45.7071 88.2071ZM2 127.5V99.5H0V127.5H2ZM13 88.5H45V86.5H13V88.5ZM2 99.5C2 93.4249 6.92487 88.5 13 88.5V86.5C5.8203 86.5 0 92.3203 0 99.5H2Z" fill="#001E87"/>
<path d="M45.7071 128.207C46.0976 127.817 46.0976 127.183 45.7071 126.793L39.3431 120.429C38.9526 120.038 38.3195 120.038 37.9289 120.429C37.5384 120.819 37.5384 121.453 37.9289 121.843L43.5858 127.5L37.9289 133.157C37.5384 133.547 37.5384 134.181 37.9289 134.571C38.3195 134.962 38.9526 134.962 39.3431 134.571L45.7071 128.207ZM1 128.5H45V126.5H1V128.5Z" fill="#001E87"/>
<path d="M45.7071 168.207C46.0976 167.817 46.0976 167.183 45.7071 166.793L39.3431 160.429C38.9526 160.038 38.3195 160.038 37.9289 160.429C37.5384 160.819 37.5384 161.453 37.9289 161.843L43.5858 167.5L37.9289 173.157C37.5384 173.547 37.5384 174.181 37.9289 174.571C38.3195 174.962 38.9526 174.962 39.3431 174.571L45.7071 168.207ZM0 127.5V155.5H2V127.5H0ZM13 168.5H45V166.5H13V168.5ZM0 155.5C0 162.68 5.8203 168.5 13 168.5V166.5C6.92487 166.5 2 161.575 2 155.5H0Z" fill="#001E87"/>
<path d="M45.7071 208.207C46.0976 207.817 46.0976 207.183 45.7071 206.793L39.3431 200.429C38.9526 200.038 38.3195 200.038 37.9289 200.429C37.5384 200.819 37.5384 201.453 37.9289 201.843L43.5858 207.5L37.9289 213.157C37.5384 213.547 37.5384 214.181 37.9289 214.571C38.3195 214.962 38.9526 214.962 39.3431 214.571L45.7071 208.207ZM0 167.5V195.5H2V167.5H0ZM13 208.5H45V206.5H13V208.5ZM0 195.5C0 202.68 5.8203 208.5 13 208.5V206.5C6.92487 206.5 2 201.575 2 195.5H0Z" fill="#001E87"/>
<path d="M45.7071 248.207C46.0976 247.817 46.0976 247.183 45.7071 246.793L39.3431 240.429C38.9526 240.038 38.3195 240.038 37.9289 240.429C37.5384 240.819 37.5384 241.453 37.9289 241.843L43.5858 247.5L37.9289 253.157C37.5384 253.547 37.5384 254.181 37.9289 254.571C38.3195 254.962 38.9526 254.962 39.3431 254.571L45.7071 248.207ZM0 207.5V235.5H2V207.5H0ZM13 248.5H45V246.5H13V248.5ZM0 235.5C0 242.68 5.8203 248.5 13 248.5V246.5C6.92487 246.5 2 241.575 2 235.5H0Z" fill="#001E87"/>
</svg>
