<svg width="147" height="24" viewBox="0 0 147 24" fill="none" xmlns="http://www.w3.org/2000/svg">
<g clip-path="url(#clip0_547_2032)">
<path d="M21.9327 5.62397C19.5994 2.7583 15.8661 1.14636 12.8866 0.788146C9.7636 0.358295 8.22003 1.11053 7.96875 1.18218C7.96875 1.18218 10.4815 5.05083 9.22515 7.37919C15.1123 3.618 18.6661 7.80904 18.6661 7.80904L21.9327 5.62397Z" fill="#77BCE8"/>
<path d="M5.99325 2.54297C3.15739 4.87133 1.54202 8.5967 1.14715 11.5698C0.752287 14.6863 1.47023 16.2266 1.54202 16.4773C1.54202 16.4773 5.4189 13.9698 7.75221 15.2236C3.98302 9.34894 8.18297 5.80267 8.18297 5.80267L5.99325 2.54297Z" fill="#77BCE8"/>
<path d="M2.86914 18.4468C5.20245 21.2766 8.93574 22.9244 11.9152 23.2826C15.0023 23.6766 16.5459 22.9602 16.7972 22.8886C16.7972 22.8886 14.2844 19.0199 15.5408 16.6916C9.65368 20.4528 6.09987 16.2617 6.09987 16.2617L2.86914 18.4468Z" fill="#77BCE8"/>
<path d="M23.2952 7.66539C23.2952 7.62957 23.2593 7.59375 23.2593 7.59375C23.2593 7.59375 19.6337 9.24151 17.1569 8.77584C19.7414 12.7878 18.485 15.7967 17.5158 17.2296C17.0492 17.8743 16.6543 18.2326 16.6543 18.2326L18.844 21.4923C19.0594 21.3132 19.2748 21.134 19.4543 20.9549C20.0286 20.4176 20.5312 19.8445 20.9619 19.1997C22.5055 17.0863 23.4029 14.6146 23.6901 12.4654C24.0491 9.59972 23.4388 8.05942 23.2952 7.66539Z" fill="#77BCE8"/>
<path d="M8.97186 20.6684C6.78214 18.4833 6.56676 16.549 6.56676 16.549L8.61289 15.4744C8.25392 15.4386 6.13599 14.0415 2.18732 12.8595C1.79246 14.0415 1.61297 15.2236 1.57707 16.2624C1.36169 15.7609 0.212986 11.9281 3.6591 8.48931C5.84882 6.30423 7.78726 6.08931 7.78726 6.08931L8.86417 8.1311C8.90006 7.77289 10.3 5.65946 11.4846 1.71916C7.75136 0.501249 4.01807 1.32513 4.01807 1.32513L5.52574 2.79379C3.76679 3.94005 2.29501 5.62364 1.54118 7.05647C-0.684439 11.355 1.2899 15.7968 1.50528 16.2983C1.36169 18.555 1.75656 20.2744 1.75656 20.2744L3.22834 18.7699C4.37704 20.5609 6.0642 22.0296 7.50008 22.746C12.059 25.1102 16.8333 22.746 16.8333 22.746C16.8333 22.746 12.6693 24.358 8.97186 20.6684Z" fill="#3A54A1"/>
<path d="M23.2948 7.52194C23.4384 5.26523 23.0435 3.54583 23.0435 3.54583L21.5718 5.0503C20.3872 3.25926 18.7359 1.7906 17.3 1.07418C12.7411 -1.29 7.9668 1.07418 7.9668 1.07418C7.9668 1.07418 12.1309 -0.537757 15.8282 3.18762C18.018 5.37269 18.2333 7.30702 18.2333 7.30702L16.1872 8.38165C16.5462 8.41747 18.6641 9.81448 22.6128 10.9966C23.0435 9.77866 23.223 8.59657 23.2948 7.52194C23.4743 8.05926 24.623 11.8921 21.1769 15.3309C18.9513 17.516 17.0128 17.7309 17.0128 17.7309L15.9359 15.6891C15.9 16.0473 14.5001 18.1608 13.3155 22.101C17.0487 23.319 20.7461 22.4951 20.7461 22.4951L19.2385 21.0264C21.0333 19.8802 22.5051 18.1966 23.223 16.7637C25.4845 12.4652 23.5102 8.02344 23.2948 7.52194Z" fill="#3A54A1"/>
<path d="M42.0679 15.5821C42.0679 16.6567 41.9602 17.6955 41.7807 18.7343C41.6012 19.7373 41.2422 20.6328 40.7038 21.4209C40.1653 22.209 39.4115 22.8179 38.4423 23.3194C37.473 23.7851 36.1807 24.0358 34.6013 24.0358C32.7346 24.0358 31.1911 23.606 29.8988 22.7104C28.6065 21.8149 27.7808 20.4537 27.4219 18.591L32.1603 17.4448C32.2321 18.0179 32.4834 18.5194 32.95 18.9134C33.4167 19.3075 33.9192 19.5224 34.4936 19.5224C35.1038 19.5224 35.5705 19.3791 35.8936 19.0925C36.2166 18.806 36.4679 18.4119 36.6115 17.9821C36.7551 17.5522 36.8628 17.0507 36.8987 16.5493C36.9346 16.0478 36.9346 15.5463 36.9346 15.1164V0H42.1037V15.5821H42.0679Z" fill="#3A54A1"/>
<path d="M55.1346 21.385H55.0628C54.5244 22.2447 53.7705 22.8537 52.8731 23.2477C51.9398 23.6059 51.0065 23.8209 49.9654 23.8209C49.2116 23.8209 48.4937 23.7134 47.8116 23.4985C47.1296 23.2835 46.5193 22.9612 45.9809 22.5671C45.4424 22.1373 45.0475 21.6358 44.7245 21.0268C44.4014 20.4179 44.2578 19.7015 44.2578 18.8776C44.2578 17.9462 44.4373 17.1582 44.7604 16.5492C45.1193 15.9044 45.5501 15.3671 46.1604 14.9731C46.7347 14.5432 47.4168 14.2209 48.1706 14.0059C48.9244 13.791 49.7142 13.6119 50.5039 13.5044C51.2936 13.397 52.1193 13.3253 52.909 13.2895C53.6987 13.2537 54.4526 13.2537 55.1346 13.2537C55.1346 12.3582 54.8115 11.6776 54.2013 11.1403C53.5551 10.6388 52.8372 10.3522 51.9757 10.3522C51.15 10.3522 50.3962 10.5313 49.7501 10.8537C49.068 11.2119 48.4578 11.6776 47.9552 12.2507L45.2988 9.52832C46.2321 8.66862 47.3091 8.02385 48.5296 7.594C49.7501 7.16414 51.0423 6.94922 52.3705 6.94922C53.8423 6.94922 55.0269 7.12832 55.9602 7.48653C56.8936 7.84474 57.6474 8.38205 58.2218 9.09847C58.7961 9.81489 59.191 10.6746 59.4064 11.6776C59.6217 12.7164 59.7294 13.8985 59.7294 15.2238V23.391H55.1705V21.385H55.1346ZM53.9141 16.3701C53.5551 16.3701 53.0526 16.3701 52.5141 16.4059C51.9398 16.4418 51.4013 16.5492 50.8988 16.6925C50.3962 16.8358 49.9295 17.0865 49.5706 17.3731C49.2116 17.6955 49.0321 18.1253 49.0321 18.6627C49.0321 19.2716 49.2834 19.7015 49.786 19.988C50.2885 20.2746 50.827 20.4179 51.3654 20.4179C51.868 20.4179 52.3346 20.3462 52.7654 20.203C53.2321 20.0597 53.6269 19.8806 53.9859 19.6298C54.3449 19.3791 54.632 19.0925 54.8474 18.6985C55.0628 18.3403 55.1705 17.8746 55.1705 17.3731V16.2985H53.9141V16.3701Z" fill="#3A54A1"/>
<path d="M60.3047 7.34375H65.6533L69.7097 18.2333H69.7815L73.5507 7.34375H78.5404L72.1866 23.3915H66.9097L60.3047 7.34375Z" fill="#3A54A1"/>
<path d="M78.9707 15.3678C78.9707 14.0782 79.1861 12.932 79.6527 11.8932C80.1194 10.8544 80.7656 9.95884 81.5553 9.24242C82.345 8.49018 83.3142 7.95287 84.3911 7.52302C85.4681 7.12899 86.6527 6.91406 87.8732 6.91406C89.0937 6.91406 90.2783 7.12899 91.3552 7.52302C92.4321 7.91705 93.4013 8.49018 94.191 9.24242C94.9808 9.99466 95.6269 10.8544 96.0936 11.8932C96.5602 12.932 96.7756 14.0782 96.7756 15.3678C96.7756 16.6573 96.5602 17.8036 96.0936 18.8424C95.6269 19.8812 94.9808 20.7768 94.191 21.4932C93.4013 22.2454 92.4321 22.7827 91.3552 23.2126C90.2783 23.6066 89.0937 23.8215 87.8732 23.8215C86.6527 23.8215 85.4681 23.6066 84.3911 23.2126C83.3142 22.8185 82.345 22.2454 81.5553 21.4932C80.7656 20.7409 80.1194 19.8812 79.6527 18.8424C79.222 17.8036 78.9707 16.6573 78.9707 15.3678ZM83.9604 15.3678C83.9604 16.5857 84.3194 17.5529 85.0014 18.3051C85.6834 19.0573 86.6886 19.4156 87.945 19.4156C89.2014 19.4156 90.1706 19.0573 90.8885 18.3051C91.5706 17.5529 91.9295 16.5857 91.9295 15.3678C91.9295 14.1499 91.5706 13.1827 90.8885 12.4305C90.2065 11.6782 89.2014 11.32 87.945 11.32C86.6886 11.32 85.7193 11.6782 85.0014 12.4305C84.2835 13.1827 83.9604 14.1499 83.9604 15.3678Z" fill="#3A54A1"/>
<path d="M98.9648 7.34325H103.739V9.52832H103.811C103.955 9.20594 104.17 8.91937 104.457 8.59698C104.744 8.27459 105.103 8.02385 105.498 7.7731C105.893 7.52235 106.36 7.34325 106.862 7.16414C107.365 7.02086 107.939 6.94922 108.513 6.94922C109.77 6.94922 110.775 7.12832 111.565 7.52235C112.354 7.91638 112.929 8.4537 113.36 9.13429C113.79 9.81489 114.077 10.6388 114.221 11.5343C114.365 12.4656 114.436 13.4686 114.436 14.5432V23.391H109.483V15.5104C109.483 15.0447 109.483 14.5791 109.447 14.0776C109.411 13.5761 109.303 13.1104 109.16 12.7164C108.98 12.2865 108.729 11.9641 108.406 11.6776C108.047 11.4268 107.58 11.2835 106.934 11.2835C106.288 11.2835 105.785 11.391 105.39 11.6418C104.996 11.8925 104.672 12.1791 104.493 12.5731C104.278 12.9671 104.134 13.397 104.062 13.8627C103.99 14.3641 103.955 14.8656 103.955 15.3671V23.3552H99.0007V7.34325H98.9648Z" fill="#77BCE8"/>
<path d="M132.384 20.6335C131.595 21.6365 130.589 22.4245 129.369 22.9976C128.148 23.535 126.892 23.8215 125.6 23.8215C124.379 23.8215 123.195 23.6066 122.118 23.2126C121.041 22.8185 120.072 22.2454 119.282 21.4932C118.492 20.7409 117.846 19.8812 117.379 18.8424C116.913 17.8036 116.697 16.6573 116.697 15.3678C116.697 14.0782 116.913 12.932 117.379 11.8932C117.846 10.8544 118.492 9.95884 119.282 9.24242C120.072 8.49018 121.041 7.95287 122.118 7.52302C123.195 7.12899 124.379 6.91406 125.6 6.91406C126.748 6.91406 127.789 7.12899 128.723 7.52302C129.656 7.91705 130.446 8.49018 131.092 9.24242C131.738 9.99466 132.241 10.8544 132.6 11.8932C132.959 12.932 133.138 14.0782 133.138 15.3678V16.9081H121.615C121.831 17.8394 122.261 18.6275 122.907 19.1648C123.554 19.7379 124.379 20.0245 125.348 20.0245C126.174 20.0245 126.856 19.8454 127.43 19.4872C128.005 19.129 128.471 18.6633 128.902 18.0902L132.384 20.6335ZM128.148 13.5409C128.184 12.717 127.897 12.0006 127.323 11.3917C126.748 10.7827 125.995 10.4962 125.097 10.4962C124.559 10.4962 124.056 10.5678 123.625 10.7469C123.195 10.926 122.836 11.1409 122.548 11.4275C122.261 11.7141 122.01 12.0365 121.866 12.3947C121.687 12.7529 121.615 13.1469 121.579 13.5409H128.148Z" fill="#77BCE8"/>
<path d="M146.277 11.3204H141.897V16.6577C141.897 17.0875 141.933 17.5174 141.969 17.8756C142.005 18.2338 142.113 18.5562 142.256 18.8069C142.4 19.0577 142.651 19.2726 142.974 19.4159C143.297 19.5592 143.728 19.6308 144.267 19.6308C144.518 19.6308 144.877 19.595 145.308 19.5592C145.738 19.4875 146.061 19.3801 146.277 19.1652V23.2846C145.738 23.4995 145.164 23.6069 144.554 23.6786C143.944 23.7502 143.369 23.7861 142.795 23.7861C141.969 23.7861 141.179 23.7144 140.462 23.5353C139.744 23.3562 139.133 23.0696 138.595 22.6756C138.056 22.2816 137.662 21.7801 137.338 21.1711C137.051 20.5622 136.908 19.8099 136.908 18.9144V11.3204H133.713V7.34426H136.908V2.58008H141.862V7.34426H146.241V11.3204H146.277Z" fill="#77BCE8"/>
</g>
<defs>
<clipPath id="clip0_547_2032">
<rect width="145.778" height="24" fill="white" transform="translate(0.5)"/>
</clipPath>
</defs>
</svg>
