<svg width="21" height="20" viewBox="0 0 21 20" fill="none" xmlns="http://www.w3.org/2000/svg">
<g id="Icons - M">
<path id="Vector" d="M14.04 13.234C13.884 12.754 13.434 12.4 12.9 12.4L12.3 12.4L12.3 10.6C12.3 10.4409 12.2368 10.2883 12.1243 10.1757C12.0117 10.0632 11.8591 10 11.7 10L8.1 10L8.1 8.8L9.3 8.8C9.45913 8.8 9.61174 8.73679 9.72426 8.62426C9.83679 8.51174 9.9 8.35913 9.9 8.2L9.9 7L11.1 7C11.4183 7 11.7235 6.87357 11.9485 6.64853C12.1736 6.42348 12.3 6.11826 12.3 5.8L12.3 5.554C14.058 6.262 15.3 7.984 15.3 10C15.3 11.248 14.82 12.382 14.04 13.234ZM9.9 14.758C7.53 14.464 5.7 12.448 5.7 10C5.7 9.628 5.748 9.268 5.826 8.926L8.7 11.8L8.7 12.4C8.7 12.7183 8.82643 13.0235 9.05147 13.2485C9.27652 13.4736 9.58174 13.6 9.9 13.6M10.5 4C9.71207 4 8.93185 4.15519 8.2039 4.45672C7.47595 4.75825 6.81451 5.20021 6.25736 5.75736C5.13214 6.88258 4.5 8.4087 4.5 10C4.5 11.5913 5.13214 13.1174 6.25736 14.2426C6.81451 14.7998 7.47595 15.2417 8.2039 15.5433C8.93185 15.8448 9.71207 16 10.5 16C12.0913 16 13.6174 15.3679 14.7426 14.2426C15.8679 13.1174 16.5 11.5913 16.5 10C16.5 9.21207 16.3448 8.43185 16.0433 7.7039C15.7417 6.97595 15.2998 6.31451 14.7426 5.75736C14.1855 5.20021 13.5241 4.75825 12.7961 4.45672C12.0681 4.15519 11.2879 4 10.5 4Z" fill="#002299"/>
</g>
</svg>
