<svg width="90" height="255" viewBox="0 0 90 255" fill="none" xmlns="http://www.w3.org/2000/svg">
<path d="M0 127.5H45" stroke="#001E87" stroke-width="2"/>
<path d="M45 42.5V212.5" stroke="#001E87" stroke-width="2"/>
<path d="M89.7071 8.20711C90.0976 7.81658 90.0976 7.18342 89.7071 6.79289L83.3431 0.428932C82.9526 0.0384078 82.3195 0.0384078 81.9289 0.428932C81.5384 0.819457 81.5384 1.45262 81.9289 1.84315L87.5858 7.5L81.9289 13.1569C81.5384 13.5474 81.5384 14.1805 81.9289 14.5711C82.3195 14.9616 82.9526 14.9616 83.3431 14.5711L89.7071 8.20711ZM46 47.5V19.5H44V47.5H46ZM57 8.5H89V6.5H57V8.5ZM46 19.5C46 13.4249 50.9249 8.5 57 8.5V6.5C49.8203 6.5 44 12.3203 44 19.5H46Z" fill="#001E87"/>
<path d="M89.7071 48.2071C90.0976 47.8166 90.0976 47.1834 89.7071 46.7929L83.3431 40.4289C82.9526 40.0384 82.3195 40.0384 81.9289 40.4289C81.5384 40.8195 81.5384 41.4526 81.9289 41.8431L87.5858 47.5L81.9289 53.1569C81.5384 53.5474 81.5384 54.1805 81.9289 54.5711C82.3195 54.9616 82.9526 54.9616 83.3431 54.5711L89.7071 48.2071ZM46 87.5V59.5H44V87.5H46ZM57 48.5H89V46.5H57V48.5ZM46 59.5C46 53.4249 50.9249 48.5 57 48.5V46.5C49.8203 46.5 44 52.3203 44 59.5H46Z" fill="#001E87"/>
<path d="M89.7071 88.2071C90.0976 87.8166 90.0976 87.1834 89.7071 86.7929L83.3431 80.4289C82.9526 80.0384 82.3195 80.0384 81.9289 80.4289C81.5384 80.8195 81.5384 81.4526 81.9289 81.8431L87.5858 87.5L81.9289 93.1569C81.5384 93.5474 81.5384 94.1805 81.9289 94.5711C82.3195 94.9616 82.9526 94.9616 83.3431 94.5711L89.7071 88.2071ZM46 127.5V99.5H44V127.5H46ZM57 88.5H89V86.5H57V88.5ZM46 99.5C46 93.4249 50.9249 88.5 57 88.5V86.5C49.8203 86.5 44 92.3203 44 99.5H46Z" fill="#001E87"/>
<path d="M89.7071 128.207C90.0976 127.817 90.0976 127.183 89.7071 126.793L83.3431 120.429C82.9526 120.038 82.3195 120.038 81.9289 120.429C81.5384 120.819 81.5384 121.453 81.9289 121.843L87.5858 127.5L81.9289 133.157C81.5384 133.547 81.5384 134.181 81.9289 134.571C82.3195 134.962 82.9526 134.962 83.3431 134.571L89.7071 128.207ZM45 128.5H89V126.5H45V128.5Z" fill="#001E87"/>
<path d="M89.7071 168.207C90.0976 167.817 90.0976 167.183 89.7071 166.793L83.3431 160.429C82.9526 160.038 82.3195 160.038 81.9289 160.429C81.5384 160.819 81.5384 161.453 81.9289 161.843L87.5858 167.5L81.9289 173.157C81.5384 173.547 81.5384 174.181 81.9289 174.571C82.3195 174.962 82.9526 174.962 83.3431 174.571L89.7071 168.207ZM44 127.5V155.5H46V127.5H44ZM57 168.5H89V166.5H57V168.5ZM44 155.5C44 162.68 49.8203 168.5 57 168.5V166.5C50.9249 166.5 46 161.575 46 155.5H44Z" fill="#001E87"/>
<path d="M89.7071 208.207C90.0976 207.817 90.0976 207.183 89.7071 206.793L83.3431 200.429C82.9526 200.038 82.3195 200.038 81.9289 200.429C81.5384 200.819 81.5384 201.453 81.9289 201.843L87.5858 207.5L81.9289 213.157C81.5384 213.547 81.5384 214.181 81.9289 214.571C82.3195 214.962 82.9526 214.962 83.3431 214.571L89.7071 208.207ZM44 167.5V195.5H46V167.5H44ZM57 208.5H89V206.5H57V208.5ZM44 195.5C44 202.68 49.8203 208.5 57 208.5V206.5C50.9249 206.5 46 201.575 46 195.5H44Z" fill="#001E87"/>
<path d="M89.7071 248.207C90.0976 247.817 90.0976 247.183 89.7071 246.793L83.3431 240.429C82.9526 240.038 82.3195 240.038 81.9289 240.429C81.5384 240.819 81.5384 241.453 81.9289 241.843L87.5858 247.5L81.9289 253.157C81.5384 253.547 81.5384 254.181 81.9289 254.571C82.3195 254.962 82.9526 254.962 83.3431 254.571L89.7071 248.207ZM44 207.5V235.5H46V207.5H44ZM57 248.5H89V246.5H57V248.5ZM44 235.5C44 242.68 49.8203 248.5 57 248.5V246.5C50.9249 246.5 46 241.575 46 235.5H44Z" fill="#001E87"/>
</svg>
