<svg width="33" height="32" viewBox="0 0 33 32" fill="none" xmlns="http://www.w3.org/2000/svg">
<g id="Group">
<g id="Group_2">
<g id="Group_3">
<path id="Vector" d="M29.8152 7.53363C26.6748 3.67677 21.6502 1.50728 17.6402 1.02517C13.437 0.446643 11.3595 1.45907 11.0213 1.55549C11.0213 1.55549 14.4032 6.76226 12.7123 9.89596C20.6356 4.83383 25.4187 10.4745 25.4187 10.4745L29.8152 7.53363Z" fill="#77BCE8"/>
<path id="Vector_2" d="M8.3628 3.38867C4.54605 6.52238 2.37195 11.5363 1.84051 15.5378C1.30906 19.7321 2.27533 21.8052 2.37195 22.1427C2.37195 22.1427 7.58979 18.7679 10.7302 20.4553C5.65726 12.5487 11.3099 7.77586 11.3099 7.77586L8.3628 3.38867Z" fill="#77BCE8"/>
<path id="Vector_3" d="M4.15796 24.7924C7.29832 28.6011 12.3229 30.8188 16.3329 31.3009C20.4879 31.8312 22.5653 30.867 22.9035 30.7706C22.9035 30.7706 19.5216 25.5638 21.2126 22.4301C13.2892 27.4922 8.50616 21.8516 8.50616 21.8516L4.15796 24.7924Z" fill="#77BCE8"/>
<path id="Vector_4" d="M31.6494 10.2839C31.6494 10.2357 31.6011 10.1875 31.6011 10.1875C31.6011 10.1875 26.7214 12.4052 23.3878 11.7785C26.8664 17.1781 25.1754 21.2278 23.8709 23.1562C23.2429 24.024 22.7114 24.5061 22.7114 24.5061L25.6585 28.8933C25.9484 28.6522 26.2383 28.4112 26.4799 28.1701C27.2529 27.447 27.9293 26.6756 28.509 25.8078C30.5865 22.9634 31.7943 19.6368 32.1808 16.7442C32.664 12.8873 31.8426 10.8142 31.6494 10.2839Z" fill="#77BCE8"/>
</g>
<g id="Group_4">
<path id="Vector_5" d="M12.374 27.7891C9.42687 24.8483 9.13699 22.2449 9.13699 22.2449L11.8908 20.7986C11.4077 20.7503 8.55723 18.8701 3.24276 17.2792C2.71132 18.8701 2.46975 20.4611 2.42144 21.8592C2.13156 21.1842 0.585531 16.0257 5.22361 11.3974C8.17072 8.45659 10.7796 8.16732 10.7796 8.16732L12.229 10.9153C12.2774 10.4332 14.1616 7.58879 15.7559 2.2856C10.7313 0.646436 5.70674 1.75528 5.70674 1.75528L7.7359 3.73193C5.36855 5.27467 3.3877 7.54058 2.37312 9.46902C-0.622302 15.2543 2.03493 21.2325 2.32481 21.9074C2.13156 24.9447 2.663 27.2588 2.663 27.2588L4.64385 25.234C6.18988 27.6445 8.4606 29.6211 10.3931 30.5854C16.5289 33.7673 22.9546 30.5854 22.9546 30.5854C22.9546 30.5854 17.3503 32.7548 12.374 27.7891Z" fill="#3A54A1"/>
<path id="Vector_6" d="M31.6494 10.0921C31.8427 7.05485 31.3112 4.74073 31.3112 4.74073L29.3304 6.76559C27.7361 4.35504 25.5136 2.3784 23.5811 1.41418C17.4453 -1.76773 11.0197 1.41418 11.0197 1.41418C11.0197 1.41418 16.624 -0.755303 21.6003 4.25862C24.5474 7.19948 24.8373 9.80287 24.8373 9.80287L22.0834 11.2492C22.5665 11.2974 25.417 13.1776 30.7315 14.7686C31.3112 13.1294 31.5528 11.5385 31.6494 10.0921C31.891 10.8153 33.437 15.9739 28.799 20.6021C25.8035 23.543 23.1946 23.8322 23.1946 23.8322L21.7452 21.0842C21.6969 21.5663 19.8127 24.4107 18.2183 29.7139C23.2429 31.3531 28.2192 30.2443 28.2192 30.2443L26.19 28.2676C28.6057 26.7249 30.5865 24.459 31.5528 22.5305C34.5965 16.7452 31.9393 10.7671 31.6494 10.0921Z" fill="#3A54A1"/>
</g>
</g>
</g>
</svg>
